<?xml version="1.0" standalone="no"?><!DOCTYPE svg PUBLIC "-//W3C//DTD SVG 1.1//EN" "http://www.w3.org/Graphics/SVG/1.1/DTD/svg11.dtd"><svg t="1597421429851" class="icon" viewBox="0 0 1024 1024" version="1.1" xmlns="http://www.w3.org/2000/svg" p-id="2818" xmlns:xlink="http://www.w3.org/1999/xlink" width="200" height="200"><defs><style type="text/css"></style></defs><path d="M673.28 711.68a162.09408 162.09408 0 1 0-162.09408 162.39616A162.24768 162.24768 0 0 0 673.28 711.68z" fill="#F4CA1C" p-id="2819"></path><path d="M965.39136 824.47872l-51.2-225.3312c-10.89024-47.93856-59.87328-82.72896-116.45952-82.72896H713.728c32.55296-68.93056 50.5856-136.54016 50.5856-195.90656a253.44 253.44 0 1 0-506.88 0c0 54.60992 14.53056 124.34432 44.85632 195.9168H226.26304c-56.58624 0-105.56928 34.816-116.45952 82.72896l-51.2 225.3312a91.40736 91.40736 0 0 0 18.65728 78.4128c22.0928 27.74528 58.65472 44.30848 97.792 44.30848h673.87904c39.14752 0 75.70944-16.5632 97.792-44.30848a91.41248 91.41248 0 0 0 18.66752-78.42304zM510.88384 133.87264A186.65472 186.65472 0 0 1 697.1392 320.512c0 104.92928-71.93088 249.1136-183.25504 367.32416a7.68 7.68 0 0 1-10.6496 0.73216C385.9712 582.32832 324.608 422.99392 324.608 320.512a186.65984 186.65984 0 0 1 186.27584-186.63936z m383.34976 727.04c-9.32352 11.70432-26.68032 18.97984-45.29664 18.97984H175.06816c-18.61632 0-35.97312-7.27552-45.29664-18.97984a24.66816 24.66816 0 0 1-5.66784-21.504l51.2-225.32608c3.87072-17.02912 26.25024-30.36672 50.96448-30.36672h109.17888a621.38368 621.38368 0 0 0 122.74176 154.76224 73.94816 73.94816 0 0 0 49.80736 19.0464 75.0592 75.0592 0 0 0 54.74816-23.51104 899.072 899.072 0 0 0 114.688-150.2976h120.28416c24.70912 0 47.104 13.3376 50.96448 30.3616l51.2 225.3312a24.6784 24.6784 0 0 1-5.65248 21.504zM633.856 320.512a122.97728 122.97728 0 1 0-122.97216 123.21792A123.2384 123.2384 0 0 0 633.856 320.512z m-178.78016 0a55.808 55.808 0 1 1 55.808 55.91552 55.92064 55.92064 0 0 1-55.808-55.91552z" fill="#595BB3" p-id="2820"></path></svg>