<?xml version="1.0" standalone="no"?><!DOCTYPE svg PUBLIC "-//W3C//DTD SVG 1.1//EN" "http://www.w3.org/Graphics/SVG/1.1/DTD/svg11.dtd"><svg t="1597463137213" class="icon" viewBox="0 0 1024 1024" version="1.1" xmlns="http://www.w3.org/2000/svg" p-id="3108" xmlns:xlink="http://www.w3.org/1999/xlink" width="200" height="200"><defs><style type="text/css"></style></defs><path d="M670.60736 736.42496H353.34656a38.3488 38.3488 0 0 1-38.4-38.3232v-182.784a38.3488 38.3488 0 0 1 38.4-38.3232h317.26592a38.35392 38.35392 0 0 1 38.4 38.3232v182.784a38.3488 38.3488 0 0 1-38.40512 38.3232z" fill="#F4CA1C" p-id="3109"></path><path d="M933.66784 383.17568l-89.45152-217.22624A151.70048 151.70048 0 0 0 703.488 71.68H316.75904a151.39328 151.39328 0 0 0-141.53728 96.256l-85.504 216.26368a112.88064 112.88064 0 0 0 9.5744 101.4272 107.60704 107.60704 0 0 0 52.67456 43.37152v344.90368A73.35936 73.35936 0 0 0 225.24928 947.2h565.05344a73.35424 73.35424 0 0 0 73.25696-73.28768V531.968a106.85952 106.85952 0 0 0 61.57312-46.85824 112.47616 112.47616 0 0 0 8.53504-101.93408z m-143.36 496.41472H225.24928a5.68832 5.68832 0 0 1-5.6832-5.67808V532.48a113.69984 113.69984 0 0 0 51.74784-29.60896 113.4592 113.4592 0 0 0 160.37376 0.45568 113.47456 113.47456 0 0 0 160.384-0.45568 113.5104 113.5104 0 0 0 160.86528 0 113.90976 113.90976 0 0 0 43.03872 26.96192v344.064a5.6832 5.6832 0 0 1-5.67296 5.71904z m77.42976-430.17728a39.424 39.424 0 0 1-31.17056 19.1488 47.22176 47.22176 0 0 1-3.19488 0.10752 46.21824 46.21824 0 0 1-46.16192-46.17216 33.792 33.792 0 0 0-33.792-33.792c-0.16896 0-0.32256 0.04608-0.4864 0.0512s-0.31744-0.0512-0.4864-0.0512a33.792 33.792 0 0 0-33.792 33.792 46.1568 46.1568 0 1 1-92.30848 0 33.792 33.792 0 0 0-33.792-33.792c-0.16896 0-0.32256 0.04608-0.4864 0.0512s-0.32256-0.0512-0.512-0.0512a33.792 33.792 0 0 0-33.792 33.792 46.1568 46.1568 0 1 1-92.30848 0 33.792 33.792 0 1 0-67.584 0 46.15168 46.15168 0 1 1-92.30336 0 33.792 33.792 0 0 0-33.792-33.792c-0.16896 0-0.32256 0.04608-0.512 0.0512s-0.31744-0.0512-0.512-0.0512a33.792 33.792 0 0 0-33.792 33.792 46.21312 46.21312 0 0 1-46.15168 46.17216 47.2576 47.2576 0 0 1-3.2-0.10752 39.7056 39.7056 0 0 1-31.232-19.03104 45.056 45.056 0 0 1-3.87584-40.448L238.08 192.81408A84.1728 84.1728 0 0 1 316.75904 139.264H703.488a84.3264 84.3264 0 0 1 78.23872 52.40832l89.45664 217.23136a44.67712 44.67712 0 0 1-3.44576 40.50944z" fill="#595BB3" p-id="3110"></path></svg>