<?xml version="1.0" standalone="no"?><!DOCTYPE svg PUBLIC "-//W3C//DTD SVG 1.1//EN" "http://www.w3.org/Graphics/SVG/1.1/DTD/svg11.dtd"><svg t="1597421404064" class="icon" viewBox="0 0 1024 1024" version="1.1" xmlns="http://www.w3.org/2000/svg" p-id="2673" xmlns:xlink="http://www.w3.org/1999/xlink" width="200" height="200"><defs><style type="text/css"></style></defs><path d="M653.91616 492.3648a117.05856 117.05856 0 1 0-117.05856 117.08416 117.0688 117.0688 0 0 0 117.05856-117.08416z" fill="#F4CA1C" p-id="2674"></path><path d="M852.43392 698.83392l-137.2416-86.75328a76.24192 76.24192 0 0 0-96.256 12.288c-14.76608 15.75424-35.41504 37.67808-49.92512 52.66432-7.936 8.192-34.75456 1.32096-44.43136-3.88608a1005.75744 1005.75744 0 0 1-103.45472-75.3152c-40.31488-34.16064-73.9328-83.23072-95.03744-118.37952-9.856-16.41984 7.95648-32.72192 11.33568-35.58912l41.10336-38.912a89.6 89.6 0 0 0 12.53888-115.48672l-72.192-106.80832a99.95264 99.95264 0 0 0-136.27392-27.71456 796.31872 796.31872 0 0 0-70.656 49.94048c-45.184 37.20704-60.47232 108.46208-44.19072 206.13632 13.19936 79.12448 61.61408 167.79264 152.36096 279.04 96.768 118.64064 223.80544 187.392 291.35872 217.94816C576.3584 940.544 630.272 952.32 674.84672 952.32c85.76512 0 136.73472-43.648 163.80928-66.83648l4.22912-3.584c23.87968-20.24448 40.0384-52.28032 48.03584-95.20128a85.0432 85.0432 0 0 0-38.48704-87.86432z m-31.0016 74.91584c-4.73088 25.41568-13.58336 45.19424-24.27904 54.272l-4.49536 3.84c-38.10816 32.64-101.888 87.28064-250.07104 12.73344l-1.34144-0.63488c-61.7216-27.86304-178.39616-90.7008-266.3424-198.51264-81.536-99.95776-126.464-180.43392-137.42592-246.03136-11.55584-69.30432-4.48-120.32 19.40992-139.99104a741.59616 741.59616 0 0 1 64.06656-45.12256 28.99456 28.99456 0 0 1 15.75424-4.68992 28.39552 28.39552 0 0 1 23.60832 12.5952l72.192 106.81344a19.21024 19.21024 0 0 1-2.69312 24.76032l-38.04672 36.1728c-24.15104 20.23936-59.19232 71.04512-26.28608 125.8496 23.83872 39.71072 62.26432 95.52896 109.93664 135.92064a1027.23072 1027.23072 0 0 0 115.65056 83.62496c21.90848 11.776 87.74656 33.13152 128.73728-9.18528 14.848-15.31904 35.7632-37.54496 50.688-53.48864a5.4528 5.4528 0 0 1 6.87104-0.88576l137.216 86.74304a14.77632 14.77632 0 0 1 6.85056 15.21664z m-261.74976-455.68a146.19648 146.19648 0 0 1 146.0736 145.98656 35.328 35.328 0 0 0 70.656 0 216.92928 216.92928 0 0 0-216.75008-216.62208 35.328 35.328 0 1 0 0.02048 70.656z m0-256.65536a35.328 35.328 0 1 0 0 70.656A332.47232 332.47232 0 0 1 891.904 464.0768a35.328 35.328 0 0 0 70.6816 0A403.21536 403.21536 0 0 0 559.68256 61.44z" fill="#595BB3" p-id="2675"></path></svg>