<?xml version="1.0" standalone="no"?><!DOCTYPE svg PUBLIC "-//W3C//DTD SVG 1.1//EN" "http://www.w3.org/Graphics/SVG/1.1/DTD/svg11.dtd"><svg t="1597463155636" class="icon" viewBox="0 0 1024 1024" version="1.1" xmlns="http://www.w3.org/2000/svg" p-id="3398" xmlns:xlink="http://www.w3.org/1999/xlink" width="200" height="200"><defs><style type="text/css"></style></defs><path d="M465.46432 355.84a125.2608 125.2608 0 1 0-125.2608 125.3888A125.32224 125.32224 0 0 0 465.46432 355.84z m87.95136 315.21792a125.2608 125.2608 0 1 0 125.2608-125.38368 125.32736 125.32736 0 0 0-125.2608 125.3632z" fill="#F4CA1C" p-id="3399"></path><path d="M250.88 972.8a144.896 144.896 0 0 1-101.21728-38.66112A138.6752 138.6752 0 0 1 107.52 832.29184v-472.576c-0.08704-7.77728 0.512-85.58592 55.808-139.2384 36.64384-35.56864 87.3984-51.92704 150.79424-48.60416 58.7776 3.072 104.52992 22.98368 135.98208 59.17696 34.17088 39.32672 49.152 95.45216 43.27936 162.304l-0.14336 1.67936c-3.456 54.8352-34.42176 104.30464-94.64832 151.19872l-0.95744 0.7168c-26.50624 19.1488-69.55008 60.15488-60.0576 119.67488 3.01568 18.90816 14.24896 38.912 26.112 60.11904 16.384 29.184 34.9184 62.25408 36.06528 101.20192 2.304 78.336-58.00448 140.49792-140.288 144.61952Q255.16032 972.8 250.88 972.8z m47.616-734.51008c-38.25152 0-68.02944 10.12224-88.67328 30.1568-35.74272 34.688-35.5328 89.76896-35.52256 90.3168v473.52832a71.61344 71.61344 0 0 0 21.40672 53.43232 80.384 80.384 0 0 0 60.416 20.11136c45.75232-2.28352 78.06464-34.20672 76.84096-75.89888-0.66048-22.528-13.7216-45.81888-27.5456-70.47168-14.2336-25.3696-28.9536-51.6096-33.84832-82.28864C256 579.30752 326.3744 516.14208 357.9904 493.16864c65.3312-51.02592 67.76832-89.6512 68.57216-102.36416 0.04608-0.73728 0.13824-1.83808 0.26112-3.26144 4.18304-47.68768-5.46304-87.69024-27.136-112.64-19.11808-21.97504-49.0752-34.2016-89.0624-36.31104q-6.1952-0.30208-12.12928-0.30208z m422.03648 614.22592q-7.76192 0-15.77984-0.41984c-58.78272-3.072-104.53504-22.98368-135.97696-59.18208-34.18112-39.32672-49.152-95.45728-43.27936-162.304l0.14336-1.67936c3.456-54.8352 34.41664-104.30464 94.64832-151.19872l0.95744-0.7168c26.50624-19.1488 69.55008-60.15488 60.0576-119.67488-3.01056-18.90304-14.23872-38.912-26.112-60.11392-16.384-29.184-34.9184-62.2592-36.06528-101.20192-2.304-78.336 58.00448-140.50304 140.288-144.61952a146.49856 146.49856 0 0 1 109.81376 38.44608A138.6752 138.6752 0 0 1 911.36 191.68256v472.576c0.08704 7.77728-0.512 85.5808-55.808 139.264-33.536 32.53248-78.91456 48.99328-135.00416 48.99328z m-59.65312-321.7152c-65.3312 51.02592-67.77344 89.6512-68.57216 102.36416a162.304 162.304 0 0 1-0.26112 3.27168c-4.18304 47.67744 5.45792 87.68 27.136 112.64 19.0976 21.98528 49.06496 34.19136 89.04192 36.28544 43.89888 2.28352 77.67552-7.62368 100.43392-29.4912 36.11648-34.68288 35.90144-90.28096 35.89632-90.83392V191.68256A71.62368 71.62368 0 0 0 823.168 138.24a80.44544 80.44544 0 0 0-60.416-20.11136c-45.75232 2.28352-78.06464 34.20672-76.83584 75.904 0.65536 22.528 13.71648 45.824 27.55072 70.47168 14.22848 25.37472 28.94336 51.61472 33.83808 82.28352 15.57504 97.87392-54.79936 161.03936-86.41024 184.0128z" fill="#595BB3" p-id="3400"></path></svg>