<?xml version="1.0" standalone="no"?><!DOCTYPE svg PUBLIC "-//W3C//DTD SVG 1.1//EN" "http://www.w3.org/Graphics/SVG/1.1/DTD/svg11.dtd"><svg t="1597421392671" class="icon" viewBox="0 0 1024 1024" version="1.1" xmlns="http://www.w3.org/2000/svg" p-id="2528" xmlns:xlink="http://www.w3.org/1999/xlink" width="200" height="200"><defs><style type="text/css"></style></defs><path d="M809.20576 490.84416a160.07168 160.07168 0 1 0-160.07168 160.0512 160.06144 160.06144 0 0 0 160.07168-160.0512z" fill="#F4CA1C" p-id="2529"></path><path d="M786.048 355.02592a193.63328 193.63328 0 0 0-270.64832-3.00032 222.75584 222.75584 0 0 0-332.89216 190.976A162.67776 162.67776 0 0 0 214.06208 865.28h413.184a31.97952 31.97952 0 0 0 12.9536-2.7648 190.52544 190.52544 0 0 0 151.49568-239.85664 193.4848 193.4848 0 0 0-5.64736-267.63264z m-45.37344 45.33248a129.3312 129.3312 0 0 1 18.97984 158.50496 190.83776 190.83776 0 0 0-140.19072-74.70592 220.07296 220.07296 0 0 0-52.736-92.04736 129.5104 129.5104 0 0 1 173.94688 8.24832z m-132.70528 400.80384H214.06208a98.58048 98.58048 0 1 1 0-197.16096 31.77472 31.77472 0 0 0 10.86464-2.01728 31.96416 31.96416 0 0 0 23.2448-35.08736 158.58688 158.58688 0 0 1 314.2656-42.84928 31.83616 31.83616 0 0 0 46.75072 23.9104 126.60224 126.60224 0 0 1-1.21856 253.20448zM540.28288 263.68a32.08192 32.08192 0 0 0 53.53984-35.328l-21.91872-33.152a32.08192 32.08192 0 0 0-53.53472 35.36384z m156.24704-2.6112a32.0768 32.0768 0 0 0 37.85728-25.0112l7.94112-38.912a32.09216 32.09216 0 0 0-62.88896-12.8l-7.94112 38.912a32.06144 32.06144 0 0 0 25.03168 37.82656z m203.264-35.76832a32.13312 32.13312 0 0 0-45.3632-1.29024l-28.9024 27.27424a32.07168 32.07168 0 0 0 44.07296 46.592l28.9024-27.27424a32.03584 32.03584 0 0 0 1.29024-45.28128z m10.78784 209.1008a32.256 32.256 0 0 0 7.46496-0.87552l38.67136-9.216a32.06144 32.06144 0 1 0-14.87872-62.32576l-38.67136 9.216a32.06144 32.06144 0 0 0 7.41376 63.22176z m50.43712 95.68256l-37.74464-12.46208a32.05632 32.05632 0 1 0-20.13184 60.87168l37.74464 12.46208a32.05632 32.05632 0 1 0 20.13696-60.8512z" fill="#595BB3" p-id="2530"></path></svg>